v 0.0 0.0 0.0
v 0.0 0.0 140
v 0.8640205126924118 0.0 1.0
v 1.44525594510827 0.0 2.0
v 1.9482483602850278 0.0 3.0
v 2.404153138963925 0.0 4.0
v 2.826446586029608 0.0 5.0
v 3.2225895135513354 0.0 6.0
v 3.5972880394314237 0.0 7.0
v 3.9537653555888492 0.0 8.0
v 4.294358594806148 0.0 9.0
v 4.62083506528235 0.0 10.0
v 4.934574948095725 0.0 11.0
v 5.236683962962784 0.0 12.0
v 5.528066489574901 0.0 13.0
v 5.809475019311126 0.0 14.0
v 6.08154475368749 0.0 15.0
v 6.344818509907826 0.0 16.0
v 6.599765088884508 0.0 17.0
v 6.8467931077880335 0.0 18.0
v 7.086261608351553 0.0 19.0
v 7.318488323667362 0.0 20.0
v 7.543756212255991 0.0 21.0
v 7.76231868830199 0.0 22.0
v 7.97440385601016 0.0 23.0
v 8.180217972994322 0.0 24.0
v 8.37994830950218 0.0 25.0
v 8.573765528917006 0.0 26.0
v 8.76182568507364 0.0 27.0
v 8.944271909999161 0.0 28.0
v 9.121235849400689 0.0 29.0
v 9.292838890978281 0.0 30.0
v 9.459193221334425 0.0 31.0
v 9.62040274010588 0.0 32.0
v 9.776563854404596 0.0 33.0
v 9.92776617232324 0.0 34.0
v 10.074093110845705 0.0 35.0
v 10.21562243078995 0.0 36.0
v 10.352426709239042 0.0 37.0
v 10.484573758166993 0.0 38.0
v 10.61212699654731 0.0 39.0
v 10.735145782075085 0.0 40.0
v 10.853685707683978 0.0 41.0
v 10.9677988672564 0.0 42.0
v 11.077534094275828 0.0 43.0
v 11.182937176629265 0.0 44.0
v 11.28405105031504 0.0 45.0
v 11.380915974430296 0.0 46.0
v 11.473569689491208 0.0 47.0
v 11.56204756086616 0.0 48.0
v 11.64638270887025 0.0 49.0
v 11.726606126871074 0.0 50.0
v 11.8027467885857 0.0 51.0
v 11.874831745602311 0.0 52.0
v 11.942886216033434 0.0 53.0
v 12.006933665098007 0.0 54.0
v 12.066995878333964 0.0 55.0
v 12.123093028059742 0.0 56.0
v 12.175243733629799 0.0 57.0
v 12.22346511596509 0.0 58.0
v 12.26777284678241 0.0 59.0
v 12.3081811928961 0.0 60.0
v 12.344703055920734 0.0 61.0
v 12.377350007662908 0.0 62.0
v 12.406132321454189 0.0 63.0
v 12.431058999644291 0.0 64.0
v 12.452137797443664 0.0 65.0
v 12.469375243277195 0.0 66.0
v 12.48277665578532 0.0 67.0
v 12.492346157585152 0.0 68.0
v 12.498086685881939 0.0 69.0
v 12.500000000000002 0.0 70.0
v 12.498086685881939 0.0 71.0
v 12.492346157585153 0.0 72.0
v 12.482776655785322 0.0 73.0
v 12.469375243277195 0.0 74.0
v 12.452137797443664 0.0 75.0
v 12.431058999644291 0.0 76.0
v 12.406132321454187 0.0 77.0
v 12.377350007662908 0.0 78.0
v 12.344703055920734 0.0 79.0
v 12.3081811928961 0.0 80.0
v 12.26777284678241 0.0 81.0
v 12.22346511596509 0.0 82.0
v 12.175243733629799 0.0 83.0
v 12.123093028059742 0.0 84.0
v 12.066995878333964 0.0 85.0
v 12.006933665098005 0.0 86.0
v 11.942886216033434 0.0 87.0
v 11.874831745602311 0.0 88.0
v 11.8027467885857 0.0 89.0
v 11.726606126871074 0.0 90.0
v 11.64638270887025 0.0 91.0
v 11.56204756086616 0.0 92.0
v 11.473569689491208 0.0 93.0
v 11.380915974430296 0.0 94.0
v 11.284051050315037 0.0 95.0
v 11.182937176629265 0.0 96.0
v 11.077534094275828 0.0 97.0
v 10.967798867256402 0.0 98.0
v 10.853685707683978 0.0 99.0
v 10.735145782075085 0.0 100.0
v 10.61212699654731 0.0 101.0
v 10.484573758166993 0.0 102.0
v 10.35242670923904 0.0 103.0
v 10.21562243078995 0.0 104.0
v 10.074093110845705 0.0 105.0
v 9.92776617232324 0.0 106.0
v 9.776563854404598 0.0 107.0
v 9.620402740105877 0.0 108.0
v 9.459193221334425 0.0 109.0
v 9.292838890978283 0.0 110.0
v 9.12123584940069 0.0 111.0
v 8.94427190999916 0.0 112.0
v 8.761825685073639 0.0 113.0
v 8.573765528917006 0.0 114.0
v 8.37994830950218 0.0 115.0
v 8.180217972994322 0.0 116.0
v 7.974403856010159 0.0 117.0
v 7.76231868830199 0.0 118.0
v 7.543756212255991 0.0 119.0
v 7.3184883236673635 0.0 120.0
v 7.086261608351552 0.0 121.0
v 6.8467931077880335 0.0 122.0
v 6.599765088884509 0.0 123.0
v 6.344818509907828 0.0 124.0
v 6.081544753687488 0.0 125.0
v 5.809475019311125 0.0 126.0
v 5.528066489574901 0.0 127.0
v 5.236683962962785 0.0 128.0
v 4.934574948095728 0.0 129.0
v 4.620835065282349 0.0 130.0
v 4.294358594806148 0.0 131.0
v 3.9537653555888497 0.0 132.0
v 3.597288039431426 0.0 133.0
v 3.222589513551333 0.0 134.0
v 2.826446586029607 0.0 135.0
v 2.404153138963926 0.0 136.0
v 1.9482483602850302 0.0 137.0
v 1.4452559451082663 0.0 138.0
v 0.8640205126924094 0.0 139.0
f 1 3 4 5 6 7 8 9 10 11 12 13 14 15 16 17 18 19 20 21 22 23 24 25 26 27 28 29 30 31 32 33 34 35 36 37 38 39 40 41 42 43 44 45 46 47 48 49 50 51 52 53 54 55 56 57 58 59 60 61 62 63 64 65 66 67 68 69 70 71 72 73 74 75 76 77 78 79 80 81 82 83 84 85 86 87 88 89 90 91 92 93 94 95 96 97 98 99 100 101 102 103 104 105 106 107 108 109 110 111 112 113 114 115 116 117 118 119 120 121 122 123 124 125 126 127 128 129 130 131 132 133 134 135 136 137 138 139 140 141 2 1
v 0.518412307615447 0.3628886153308129 1.0
v 0.867153567064962 0.6070074969454734 2.0
v 1.1689490161710165 0.8182643113197117 3.0
v 1.442491883378355 1.0097443183648485 4.0
v 1.6958679516177648 1.1871075661324355 5.0
v 1.933553708130801 1.3534875956915606 6.0
v 2.158372823658854 1.5108609765611978 7.0
v 2.3722592133533094 1.6605814493473166 8.0
v 2.576615156883689 1.8036306098185821 9.0
v 2.77250103916941 1.9407507274185871 10.0
v 2.960744968857435 2.072521478200205 11.0
v 3.142010377777671 2.1994072644443694 12.0
v 3.3168398937449406 2.321787925621458 13.0
v 3.4856850115866758 2.4399795081106728 14.0
v 3.6489268522124942 2.554248796548746 15.0
v 3.806891105944696 2.6648237741612872 16.0
v 3.9598590533307054 2.7719013373314936 17.0
v 4.10807586467282 2.875653105270974 18.0
v 4.251756965010932 2.976229875507652 19.0
v 4.391092994200417 3.073765095940292 20.0
v 4.526253727353594 3.168377609147516 21.0
v 4.657391212981194 3.2601738490868355 22.0
v 4.7846423136060965 3.3492496195242674 23.0
v 4.908130783796594 3.4356915486576156 24.0
v 5.027968985701308 3.5195782899909154 25.0
v 5.144259317350204 3.6009815221451427 26.0
v 5.257095411044184 3.679966787730929 27.0
v 5.366563145999496 3.7565942021996475 28.0
v 5.472741509640413 3.830919056748289 29.0
v 5.575703334586969 3.902992334210878 30.0
v 5.675515932800656 3.972861152960459 31.0
v 5.772241644063528 4.040569150844469 32.0
v 5.865938312642757 4.10615681884993 33.0
v 5.956659703393944 4.16966179237576 34.0
v 6.044455866507423 4.231119106555196 35.0
v 6.129373458473969 4.290561420931779 36.0
v 6.211456025543425 4.348019217880398 37.0
v 6.290744254900196 4.403520978430137 38.0
v 6.367276197928386 4.45709333854987 39.0
v 6.441087469245051 4.508761228471536 40.0
v 6.5122114246103875 4.558547997227271 41.0
v 6.58067932035384 4.6064755242476885 42.0
v 6.646520456565496 4.6525643195958475 43.0
v 6.709762305977559 4.696833614184292 44.0
v 6.770430630189025 4.7393014411323175 45.0
v 6.8285495846581785 4.779984709260725 46.0
v 6.884141813694725 4.818899269586307 47.0
v 6.937228536519696 4.856059975563787 48.0
v 6.987829625322149 4.891480737725504 49.0
v 7.035963676122645 4.925174573285852 50.0
v 7.081648073151421 4.957153651205995 51.0
v 7.124899047361386 4.987429333152971 52.0
v 7.165731729620061 5.016012210734043 53.0
v 7.204160199058804 5.042912139341163 54.0
v 7.2401975270003796 5.068138268900265 55.0
v 7.273855816835845 5.091699071785092 56.0
v 7.30514624017788 5.113602368124516 57.0
v 7.334079069579055 5.133855348705338 58.0
v 7.360663708069446 5.152464595648612 59.0
v 7.3849087157376605 5.169436101016362 60.0
v 7.40682183355244 5.184775283486708 61.0
v 7.426410004597744 5.198487003218421 62.0
v 7.4436793928725145 5.21057557501076 63.0
v 7.458635399786574 5.221044779850602 64.0
v 7.471282678466198 5.229897874926339 65.0
v 7.4816251459663174 5.237137602176422 66.0
v 7.489665993471193 5.242766195429835 67.0
v 7.495407694551091 5.246785386185763 68.0
v 7.498852011529164 5.249196408070414 69.0
v 7.5 5.25 70.0
v 7.498852011529164 5.249196408070414 71.0
v 7.495407694551092 5.246785386185764 72.0
v 7.489665993471194 5.2427661954298355 73.0
v 7.4816251459663174 5.237137602176422 74.0
v 7.471282678466198 5.229897874926339 75.0
v 7.458635399786574 5.221044779850602 76.0
v 7.443679392872513 5.2105755750107585 77.0
v 7.426410004597744 5.198487003218421 78.0
v 7.40682183355244 5.184775283486708 79.0
v 7.3849087157376605 5.169436101016362 80.0
v 7.360663708069446 5.152464595648612 81.0
v 7.334079069579055 5.133855348705338 82.0
v 7.30514624017788 5.113602368124516 83.0
v 7.273855816835845 5.091699071785092 84.0
v 7.2401975270003796 5.068138268900265 85.0
v 7.204160199058803 5.042912139341162 86.0
v 7.165731729620061 5.016012210734043 87.0
v 7.124899047361386 4.987429333152971 88.0
v 7.081648073151421 4.957153651205995 89.0
v 7.035963676122645 4.925174573285852 90.0
v 6.987829625322149 4.891480737725504 91.0
v 6.937228536519696 4.856059975563787 92.0
v 6.884141813694725 4.818899269586307 93.0
v 6.8285495846581785 4.779984709260725 94.0
v 6.770430630189022 4.739301441132316 95.0
v 6.709762305977559 4.696833614184292 96.0
v 6.646520456565496 4.6525643195958475 97.0
v 6.580679320353842 4.606475524247689 98.0
v 6.5122114246103875 4.558547997227271 99.0
v 6.441087469245051 4.508761228471536 100.0
v 6.367276197928386 4.45709333854987 101.0
v 6.290744254900196 4.403520978430137 102.0
v 6.211456025543424 4.348019217880397 103.0
v 6.129373458473969 4.290561420931779 104.0
v 6.044455866507423 4.231119106555196 105.0
v 5.956659703393944 4.16966179237576 106.0
v 5.865938312642759 4.106156818849931 107.0
v 5.772241644063526 4.040569150844468 108.0
v 5.675515932800656 3.972861152960459 109.0
v 5.57570333458697 3.9029923342108788 110.0
v 5.472741509640414 3.8309190567482903 111.0
v 5.3665631459994945 3.756594202199646 112.0
v 5.257095411044183 3.6799667877309283 113.0
v 5.144259317350204 3.6009815221451427 114.0
v 5.027968985701308 3.5195782899909154 115.0
v 4.908130783796593 3.435691548657615 116.0
v 4.7846423136060965 3.3492496195242674 117.0
v 4.657391212981194 3.2601738490868355 118.0
v 4.526253727353594 3.168377609147516 119.0
v 4.3910929942004175 3.0737650959402925 120.0
v 4.251756965010931 2.9762298755076517 121.0
v 4.10807586467282 2.875653105270974 122.0
v 3.9598590533307054 2.7719013373314936 123.0
v 3.806891105944697 2.6648237741612877 124.0
v 3.648926852212493 2.554248796548745 125.0
v 3.485685011586675 2.4399795081106723 126.0
v 3.3168398937449406 2.321787925621458 127.0
v 3.1420103777776713 2.19940726444437 128.0
v 2.960744968857436 2.0725214782002053 129.0
v 2.7725010391694096 1.9407507274185867 130.0
v 2.576615156883689 1.8036306098185821 131.0
v 2.37225921335331 1.6605814493473168 132.0
v 2.1583728236588557 1.5108609765611989 133.0
v 1.9335537081307999 1.35348759569156 134.0
v 1.6958679516177642 1.1871075661324348 135.0
v 1.4424918833783555 1.009744318364849 136.0
v 1.1689490161710183 0.8182643113197128 137.0
v 0.8671535670649597 0.6070074969454718 138.0
v 0.5184123076154457 0.36288861533081196 139.0
v -0.8640205126924118 0.0 1.0
v -1.44525594510827 0.0 2.0
v -1.9482483602850278 0.0 3.0
v -2.404153138963925 0.0 4.0
v -2.826446586029608 0.0 5.0
v -3.2225895135513354 0.0 6.0
v -3.5972880394314237 0.0 7.0
v -3.9537653555888492 0.0 8.0
v -4.294358594806148 0.0 9.0
v -4.62083506528235 0.0 10.0
v -4.934574948095725 0.0 11.0
v -5.236683962962784 0.0 12.0
v -5.528066489574901 0.0 13.0
v -5.809475019311126 0.0 14.0
v -6.08154475368749 0.0 15.0
v -6.344818509907826 0.0 16.0
v -6.599765088884508 0.0 17.0
v -6.8467931077880335 0.0 18.0
v -7.086261608351553 0.0 19.0
v -7.318488323667362 0.0 20.0
v -7.543756212255991 0.0 21.0
v -7.76231868830199 0.0 22.0
v -7.97440385601016 0.0 23.0
v -8.180217972994322 0.0 24.0
v -8.37994830950218 0.0 25.0
v -8.573765528917006 0.0 26.0
v -8.76182568507364 0.0 27.0
v -8.944271909999161 0.0 28.0
v -9.121235849400689 0.0 29.0
v -9.292838890978281 0.0 30.0
v -9.459193221334425 0.0 31.0
v -9.62040274010588 0.0 32.0
v -9.776563854404596 0.0 33.0
v -9.92776617232324 0.0 34.0
v -10.074093110845705 0.0 35.0
v -10.21562243078995 0.0 36.0
v -10.352426709239042 0.0 37.0
v -10.484573758166993 0.0 38.0
v -10.61212699654731 0.0 39.0
v -10.735145782075085 0.0 40.0
v -10.853685707683978 0.0 41.0
v -10.9677988672564 0.0 42.0
v -11.077534094275828 0.0 43.0
v -11.182937176629265 0.0 44.0
v -11.28405105031504 0.0 45.0
v -11.380915974430296 0.0 46.0
v -11.473569689491208 0.0 47.0
v -11.56204756086616 0.0 48.0
v -11.64638270887025 0.0 49.0
v -11.726606126871074 0.0 50.0
v -11.8027467885857 0.0 51.0
v -11.874831745602311 0.0 52.0
v -11.942886216033434 0.0 53.0
v -12.006933665098007 0.0 54.0
v -12.066995878333964 0.0 55.0
v -12.123093028059742 0.0 56.0
v -12.175243733629799 0.0 57.0
v -12.22346511596509 0.0 58.0
v -12.26777284678241 0.0 59.0
v -12.3081811928961 0.0 60.0
v -12.344703055920734 0.0 61.0
v -12.377350007662908 0.0 62.0
v -12.406132321454189 0.0 63.0
v -12.431058999644291 0.0 64.0
v -12.452137797443664 0.0 65.0
v -12.469375243277195 0.0 66.0
v -12.48277665578532 0.0 67.0
v -12.492346157585152 0.0 68.0
v -12.498086685881939 0.0 69.0
v -12.500000000000002 0.0 70.0
v -12.498086685881939 0.0 71.0
v -12.492346157585153 0.0 72.0
v -12.482776655785322 0.0 73.0
v -12.469375243277195 0.0 74.0
v -12.452137797443664 0.0 75.0
v -12.431058999644291 0.0 76.0
v -12.406132321454187 0.0 77.0
v -12.377350007662908 0.0 78.0
v -12.344703055920734 0.0 79.0
v -12.3081811928961 0.0 80.0
v -12.26777284678241 0.0 81.0
v -12.22346511596509 0.0 82.0
v -12.175243733629799 0.0 83.0
v -12.123093028059742 0.0 84.0
v -12.066995878333964 0.0 85.0
v -12.006933665098005 0.0 86.0
v -11.942886216033434 0.0 87.0
v -11.874831745602311 0.0 88.0
v -11.8027467885857 0.0 89.0
v -11.726606126871074 0.0 90.0
v -11.64638270887025 0.0 91.0
v -11.56204756086616 0.0 92.0
v -11.473569689491208 0.0 93.0
v -11.380915974430296 0.0 94.0
v -11.284051050315037 0.0 95.0
v -11.182937176629265 0.0 96.0
v -11.077534094275828 0.0 97.0
v -10.967798867256402 0.0 98.0
v -10.853685707683978 0.0 99.0
v -10.735145782075085 0.0 100.0
v -10.61212699654731 0.0 101.0
v -10.484573758166993 0.0 102.0
v -10.35242670923904 0.0 103.0
v -10.21562243078995 0.0 104.0
v -10.074093110845705 0.0 105.0
v -9.92776617232324 0.0 106.0
v -9.776563854404598 0.0 107.0
v -9.620402740105877 0.0 108.0
v -9.459193221334425 0.0 109.0
v -9.292838890978283 0.0 110.0
v -9.12123584940069 0.0 111.0
v -8.94427190999916 0.0 112.0
v -8.761825685073639 0.0 113.0
v -8.573765528917006 0.0 114.0
v -8.37994830950218 0.0 115.0
v -8.180217972994322 0.0 116.0
v -7.974403856010159 0.0 117.0
v -7.76231868830199 0.0 118.0
v -7.543756212255991 0.0 119.0
v -7.3184883236673635 0.0 120.0
v -7.086261608351552 0.0 121.0
v -6.8467931077880335 0.0 122.0
v -6.599765088884509 0.0 123.0
v -6.344818509907828 0.0 124.0
v -6.081544753687488 0.0 125.0
v -5.809475019311125 0.0 126.0
v -5.528066489574901 0.0 127.0
v -5.236683962962785 0.0 128.0
v -4.934574948095728 0.0 129.0
v -4.620835065282349 0.0 130.0
v -4.294358594806148 0.0 131.0
v -3.9537653555888497 0.0 132.0
v -3.597288039431426 0.0 133.0
v -3.222589513551333 0.0 134.0
v -2.826446586029607 0.0 135.0
v -2.404153138963926 0.0 136.0
v -1.9482483602850302 0.0 137.0
v -1.4452559451082663 0.0 138.0
v -0.8640205126924094 0.0 139.0
f 1 281 282 283 284 285 286 287 288 289 290 291 292 293 294 295 296 297 298 299 300 301 302 303 304 305 306 307 308 309 310 311 312 313 314 315 316 317 318 319 320 321 322 323 324 325 326 327 328 329 330 331 332 333 334 335 336 337 338 339 340 341 342 343 344 345 346 347 348 349 350 351 352 353 354 355 356 357 358 359 360 361 362 363 364 365 366 367 368 369 370 371 372 373 374 375 376 377 378 379 380 381 382 383 384 385 386 387 388 389 390 391 392 393 394 395 396 397 398 399 400 401 402 403 404 405 406 407 408 409 410 411 412 413 414 415 416 417 418 419 2 1
v -0.518412307615447 0.3628886153308129 1.0
v -0.867153567064962 0.6070074969454734 2.0
v -1.1689490161710165 0.8182643113197117 3.0
v -1.442491883378355 1.0097443183648485 4.0
v -1.6958679516177648 1.1871075661324355 5.0
v -1.933553708130801 1.3534875956915606 6.0
v -2.158372823658854 1.5108609765611978 7.0
v -2.3722592133533094 1.6605814493473166 8.0
v -2.576615156883689 1.8036306098185821 9.0
v -2.77250103916941 1.9407507274185871 10.0
v -2.960744968857435 2.072521478200205 11.0
v -3.142010377777671 2.1994072644443694 12.0
v -3.3168398937449406 2.321787925621458 13.0
v -3.4856850115866758 2.4399795081106728 14.0
v -3.6489268522124942 2.554248796548746 15.0
v -3.806891105944696 2.6648237741612872 16.0
v -3.9598590533307054 2.7719013373314936 17.0
v -4.10807586467282 2.875653105270974 18.0
v -4.251756965010932 2.976229875507652 19.0
v -4.391092994200417 3.073765095940292 20.0
v -4.526253727353594 3.168377609147516 21.0
v -4.657391212981194 3.2601738490868355 22.0
v -4.7846423136060965 3.3492496195242674 23.0
v -4.908130783796594 3.4356915486576156 24.0
v -5.027968985701308 3.5195782899909154 25.0
v -5.144259317350204 3.6009815221451427 26.0
v -5.257095411044184 3.679966787730929 27.0
v -5.366563145999496 3.7565942021996475 28.0
v -5.472741509640413 3.830919056748289 29.0
v -5.575703334586969 3.902992334210878 30.0
v -5.675515932800656 3.972861152960459 31.0
v -5.772241644063528 4.040569150844469 32.0
v -5.865938312642757 4.10615681884993 33.0
v -5.956659703393944 4.16966179237576 34.0
v -6.044455866507423 4.231119106555196 35.0
v -6.129373458473969 4.290561420931779 36.0
v -6.211456025543425 4.348019217880398 37.0
v -6.290744254900196 4.403520978430137 38.0
v -6.367276197928386 4.45709333854987 39.0
v -6.441087469245051 4.508761228471536 40.0
v -6.5122114246103875 4.558547997227271 41.0
v -6.58067932035384 4.6064755242476885 42.0
v -6.646520456565496 4.6525643195958475 43.0
v -6.709762305977559 4.696833614184292 44.0
v -6.770430630189025 4.7393014411323175 45.0
v -6.8285495846581785 4.779984709260725 46.0
v -6.884141813694725 4.818899269586307 47.0
v -6.937228536519696 4.856059975563787 48.0
v -6.987829625322149 4.891480737725504 49.0
v -7.035963676122645 4.925174573285852 50.0
v -7.081648073151421 4.957153651205995 51.0
v -7.124899047361386 4.987429333152971 52.0
v -7.165731729620061 5.016012210734043 53.0
v -7.204160199058804 5.042912139341163 54.0
v -7.2401975270003796 5.068138268900265 55.0
v -7.273855816835845 5.091699071785092 56.0
v -7.30514624017788 5.113602368124516 57.0
v -7.334079069579055 5.133855348705338 58.0
v -7.360663708069446 5.152464595648612 59.0
v -7.3849087157376605 5.169436101016362 60.0
v -7.40682183355244 5.184775283486708 61.0
v -7.426410004597744 5.198487003218421 62.0
v -7.4436793928725145 5.21057557501076 63.0
v -7.458635399786574 5.221044779850602 64.0
v -7.471282678466198 5.229897874926339 65.0
v -7.4816251459663174 5.237137602176422 66.0
v -7.489665993471193 5.242766195429835 67.0
v -7.495407694551091 5.246785386185763 68.0
v -7.498852011529164 5.249196408070414 69.0
v -7.5 5.25 70.0
v -7.498852011529164 5.249196408070414 71.0
v -7.495407694551092 5.246785386185764 72.0
v -7.489665993471194 5.2427661954298355 73.0
v -7.4816251459663174 5.237137602176422 74.0
v -7.471282678466198 5.229897874926339 75.0
v -7.458635399786574 5.221044779850602 76.0
v -7.443679392872513 5.2105755750107585 77.0
v -7.426410004597744 5.198487003218421 78.0
v -7.40682183355244 5.184775283486708 79.0
v -7.3849087157376605 5.169436101016362 80.0
v -7.360663708069446 5.152464595648612 81.0
v -7.334079069579055 5.133855348705338 82.0
v -7.30514624017788 5.113602368124516 83.0
v -7.273855816835845 5.091699071785092 84.0
v -7.2401975270003796 5.068138268900265 85.0
v -7.204160199058803 5.042912139341162 86.0
v -7.165731729620061 5.016012210734043 87.0
v -7.124899047361386 4.987429333152971 88.0
v -7.081648073151421 4.957153651205995 89.0
v -7.035963676122645 4.925174573285852 90.0
v -6.987829625322149 4.891480737725504 91.0
v -6.937228536519696 4.856059975563787 92.0
v -6.884141813694725 4.818899269586307 93.0
v -6.8285495846581785 4.779984709260725 94.0
v -6.770430630189022 4.739301441132316 95.0
v -6.709762305977559 4.696833614184292 96.0
v -6.646520456565496 4.6525643195958475 97.0
v -6.580679320353842 4.606475524247689 98.0
v -6.5122114246103875 4.558547997227271 99.0
v -6.441087469245051 4.508761228471536 100.0
v -6.367276197928386 4.45709333854987 101.0
v -6.290744254900196 4.403520978430137 102.0
v -6.211456025543424 4.348019217880397 103.0
v -6.129373458473969 4.290561420931779 104.0
v -6.044455866507423 4.231119106555196 105.0
v -5.956659703393944 4.16966179237576 106.0
v -5.865938312642759 4.106156818849931 107.0
v -5.772241644063526 4.040569150844468 108.0
v -5.675515932800656 3.972861152960459 109.0
v -5.57570333458697 3.9029923342108788 110.0
v -5.472741509640414 3.8309190567482903 111.0
v -5.3665631459994945 3.756594202199646 112.0
v -5.257095411044183 3.6799667877309283 113.0
v -5.144259317350204 3.6009815221451427 114.0
v -5.027968985701308 3.5195782899909154 115.0
v -4.908130783796593 3.435691548657615 116.0
v -4.7846423136060965 3.3492496195242674 117.0
v -4.657391212981194 3.2601738490868355 118.0
v -4.526253727353594 3.168377609147516 119.0
v -4.3910929942004175 3.0737650959402925 120.0
v -4.251756965010931 2.9762298755076517 121.0
v -4.10807586467282 2.875653105270974 122.0
v -3.9598590533307054 2.7719013373314936 123.0
v -3.806891105944697 2.6648237741612877 124.0
v -3.648926852212493 2.554248796548745 125.0
v -3.485685011586675 2.4399795081106723 126.0
v -3.3168398937449406 2.321787925621458 127.0
v -3.1420103777776713 2.19940726444437 128.0
v -2.960744968857436 2.0725214782002053 129.0
v -2.7725010391694096 1.9407507274185867 130.0
v -2.576615156883689 1.8036306098185821 131.0
v -2.37225921335331 1.6605814493473168 132.0
v -2.1583728236588557 1.5108609765611989 133.0
v -1.9335537081307999 1.35348759569156 134.0
v -1.6958679516177642 1.1871075661324348 135.0
v -1.4424918833783555 1.009744318364849 136.0
v -1.1689490161710183 0.8182643113197128 137.0
v -0.8671535670649597 0.6070074969454718 138.0
v -0.5184123076154457 0.36288861533081196 139.0
v 0.0 0.5184123076154471 1.0
v 0.0 0.867153567064962 2.0
v 0.0 1.1689490161710168 3.0
v 0.0 1.4424918833783549 4.0
v 0.0 1.6958679516177648 5.0
v 0.0 1.9335537081308012 6.0
v 0.0 2.1583728236588544 7.0
v 0.0 2.37225921335331 8.0
v 0.0 2.576615156883689 9.0
v 0.0 2.77250103916941 10.0
v 0.0 2.960744968857435 11.0
v 0.0 3.142010377777671 12.0
v 0.0 3.3168398937449406 13.0
v 0.0 3.4856850115866753 14.0
v 0.0 3.648926852212494 15.0
v 0.0 3.8068911059446955 16.0
v 0.0 3.959859053330705 17.0
v 0.0 4.10807586467282 18.0
v 0.0 4.251756965010932 19.0
v 0.0 4.391092994200417 20.0
v 0.0 4.526253727353594 21.0
v 0.0 4.657391212981194 22.0
v 0.0 4.7846423136060965 23.0
v 0.0 4.908130783796594 24.0
v 0.0 5.027968985701308 25.0
v 0.0 5.144259317350204 26.0
v 0.0 5.257095411044184 27.0
v 0.0 5.366563145999496 28.0
v 0.0 5.472741509640413 29.0
v 0.0 5.575703334586969 30.0
v 0.0 5.675515932800655 31.0
v 0.0 5.772241644063528 32.0
v 0.0 5.865938312642757 33.0
v 0.0 5.956659703393943 34.0
v 0.0 6.044455866507423 35.0
v 0.0 6.12937345847397 36.0
v 0.0 6.211456025543425 37.0
v 0.0 6.290744254900196 38.0
v 0.0 6.367276197928386 39.0
v 0.0 6.441087469245051 40.0
v 0.0 6.512211424610387 41.0
v 0.0 6.58067932035384 42.0
v 0.0 6.646520456565496 43.0
v 0.0 6.709762305977559 44.0
v 0.0 6.770430630189025 45.0
v 0.0 6.8285495846581785 46.0
v 0.0 6.884141813694725 47.0
v 0.0 6.937228536519696 48.0
v 0.0 6.98782962532215 49.0
v 0.0 7.035963676122645 50.0
v 0.0 7.081648073151421 51.0
v 0.0 7.124899047361387 52.0
v 0.0 7.16573172962006 53.0
v 0.0 7.204160199058804 54.0
v 0.0 7.240197527000379 55.0
v 0.0 7.2738558168358445 56.0
v 0.0 7.305146240177879 57.0
v 0.0 7.3340790695790545 58.0
v 0.0 7.3606637080694455 59.0
v 0.0 7.3849087157376605 60.0
v 0.0 7.40682183355244 61.0
v 0.0 7.426410004597745 62.0
v 0.0 7.443679392872514 63.0
v 0.0 7.458635399786575 64.0
v 0.0 7.471282678466198 65.0
v 0.0 7.481625145966317 66.0
v 0.0 7.489665993471192 67.0
v 0.0 7.495407694551091 68.0
v 0.0 7.498852011529164 69.0
v 0.0 7.500000000000001 70.0
v 0.0 7.498852011529164 71.0
v 0.0 7.4954076945510915 72.0
v 0.0 7.489665993471194 73.0
v 0.0 7.481625145966317 74.0
v 0.0 7.471282678466198 75.0
v 0.0 7.458635399786575 76.0
v 0.0 7.443679392872513 77.0
v 0.0 7.426410004597745 78.0
v 0.0 7.40682183355244 79.0
v 0.0 7.3849087157376605 80.0
v 0.0 7.3606637080694455 81.0
v 0.0 7.3340790695790545 82.0
v 0.0 7.305146240177879 83.0
v 0.0 7.2738558168358445 84.0
v 0.0 7.240197527000379 85.0
v 0.0 7.204160199058803 86.0
v 0.0 7.16573172962006 87.0
v 0.0 7.124899047361387 88.0
v 0.0 7.081648073151421 89.0
v 0.0 7.035963676122645 90.0
v 0.0 6.98782962532215 91.0
v 0.0 6.937228536519696 92.0
v 0.0 6.884141813694725 93.0
v 0.0 6.8285495846581785 94.0
v 0.0 6.770430630189023 95.0
v 0.0 6.709762305977559 96.0
v 0.0 6.646520456565496 97.0
v 0.0 6.580679320353841 98.0
v 0.0 6.512211424610387 99.0
v 0.0 6.441087469245051 100.0
v 0.0 6.367276197928386 101.0
v 0.0 6.290744254900196 102.0
v 0.0 6.211456025543424 103.0
v 0.0 6.12937345847397 104.0
v 0.0 6.044455866507423 105.0
v 0.0 5.956659703393943 106.0
v 0.0 5.865938312642759 107.0
v 0.0 5.772241644063526 108.0
v 0.0 5.675515932800655 109.0
v 0.0 5.5757033345869695 110.0
v 0.0 5.472741509640414 111.0
v 0.0 5.366563145999495 112.0
v 0.0 5.257095411044183 113.0
v 0.0 5.144259317350204 114.0
v 0.0 5.027968985701308 115.0
v 0.0 4.908130783796593 116.0
v 0.0 4.784642313606096 117.0
v 0.0 4.657391212981194 118.0
v 0.0 4.526253727353594 119.0
v 0.0 4.391092994200418 120.0
v 0.0 4.251756965010931 121.0
v 0.0 4.10807586467282 122.0
v 0.0 3.959859053330706 123.0
v 0.0 3.806891105944697 124.0
v 0.0 3.648926852212493 125.0
v 0.0 3.485685011586675 126.0
v 0.0 3.3168398937449406 127.0
v 0.0 3.1420103777776713 128.0
v 0.0 2.9607449688574365 129.0
v 0.0 2.7725010391694096 130.0
v 0.0 2.576615156883689 131.0
v 0.0 2.37225921335331 132.0
v 0.0 2.1583728236588557 133.0
v 0.0 1.9335537081308 134.0
v 0.0 1.6958679516177642 135.0
v 0.0 1.4424918833783555 136.0
v 0.0 1.168949016171018 137.0
v 0.0 0.8671535670649597 138.0
v 0.0 0.5184123076154457 139.0
f 1 281 420
f 1 3 142
f 1 420 559
f 1 142 559
f 418 557 420 281
f 140 279 142 3
f 557 696 559 420
f 279 696 559 142
f 419 558 421 282
f 141 280 143 4
f 558 697 560 421
f 280 697 560 143
f 281 420 422 283
f 3 142 144 5
f 420 559 561 422
f 142 559 561 144
f 282 421 423 284
f 4 143 145 6
f 421 560 562 423
f 143 560 562 145
f 283 422 424 285
f 5 144 146 7
f 422 561 563 424
f 144 561 563 146
f 284 423 425 286
f 6 145 147 8
f 423 562 564 425
f 145 562 564 147
f 285 424 426 287
f 7 146 148 9
f 424 563 565 426
f 146 563 565 148
f 286 425 427 288
f 8 147 149 10
f 425 564 566 427
f 147 564 566 149
f 287 426 428 289
f 9 148 150 11
f 426 565 567 428
f 148 565 567 150
f 288 427 429 290
f 10 149 151 12
f 427 566 568 429
f 149 566 568 151
f 289 428 430 291
f 11 150 152 13
f 428 567 569 430
f 150 567 569 152
f 290 429 431 292
f 12 151 153 14
f 429 568 570 431
f 151 568 570 153
f 291 430 432 293
f 13 152 154 15
f 430 569 571 432
f 152 569 571 154
f 292 431 433 294
f 14 153 155 16
f 431 570 572 433
f 153 570 572 155
f 293 432 434 295
f 15 154 156 17
f 432 571 573 434
f 154 571 573 156
f 294 433 435 296
f 16 155 157 18
f 433 572 574 435
f 155 572 574 157
f 295 434 436 297
f 17 156 158 19
f 434 573 575 436
f 156 573 575 158
f 296 435 437 298
f 18 157 159 20
f 435 574 576 437
f 157 574 576 159
f 297 436 438 299
f 19 158 160 21
f 436 575 577 438
f 158 575 577 160
f 298 437 439 300
f 20 159 161 22
f 437 576 578 439
f 159 576 578 161
f 299 438 440 301
f 21 160 162 23
f 438 577 579 440
f 160 577 579 162
f 300 439 441 302
f 22 161 163 24
f 439 578 580 441
f 161 578 580 163
f 301 440 442 303
f 23 162 164 25
f 440 579 581 442
f 162 579 581 164
f 302 441 443 304
f 24 163 165 26
f 441 580 582 443
f 163 580 582 165
f 303 442 444 305
f 25 164 166 27
f 442 581 583 444
f 164 581 583 166
f 304 443 445 306
f 26 165 167 28
f 443 582 584 445
f 165 582 584 167
f 305 444 446 307
f 27 166 168 29
f 444 583 585 446
f 166 583 585 168
f 306 445 447 308
f 28 167 169 30
f 445 584 586 447
f 167 584 586 169
f 307 446 448 309
f 29 168 170 31
f 446 585 587 448
f 168 585 587 170
f 308 447 449 310
f 30 169 171 32
f 447 586 588 449
f 169 586 588 171
f 309 448 450 311
f 31 170 172 33
f 448 587 589 450
f 170 587 589 172
f 310 449 451 312
f 32 171 173 34
f 449 588 590 451
f 171 588 590 173
f 311 450 452 313
f 33 172 174 35
f 450 589 591 452
f 172 589 591 174
f 312 451 453 314
f 34 173 175 36
f 451 590 592 453
f 173 590 592 175
f 313 452 454 315
f 35 174 176 37
f 452 591 593 454
f 174 591 593 176
f 314 453 455 316
f 36 175 177 38
f 453 592 594 455
f 175 592 594 177
f 315 454 456 317
f 37 176 178 39
f 454 593 595 456
f 176 593 595 178
f 316 455 457 318
f 38 177 179 40
f 455 594 596 457
f 177 594 596 179
f 317 456 458 319
f 39 178 180 41
f 456 595 597 458
f 178 595 597 180
f 318 457 459 320
f 40 179 181 42
f 457 596 598 459
f 179 596 598 181
f 319 458 460 321
f 41 180 182 43
f 458 597 599 460
f 180 597 599 182
f 320 459 461 322
f 42 181 183 44
f 459 598 600 461
f 181 598 600 183
f 321 460 462 323
f 43 182 184 45
f 460 599 601 462
f 182 599 601 184
f 322 461 463 324
f 44 183 185 46
f 461 600 602 463
f 183 600 602 185
f 323 462 464 325
f 45 184 186 47
f 462 601 603 464
f 184 601 603 186
f 324 463 465 326
f 46 185 187 48
f 463 602 604 465
f 185 602 604 187
f 325 464 466 327
f 47 186 188 49
f 464 603 605 466
f 186 603 605 188
f 326 465 467 328
f 48 187 189 50
f 465 604 606 467
f 187 604 606 189
f 327 466 468 329
f 49 188 190 51
f 466 605 607 468
f 188 605 607 190
f 328 467 469 330
f 50 189 191 52
f 467 606 608 469
f 189 606 608 191
f 329 468 470 331
f 51 190 192 53
f 468 607 609 470
f 190 607 609 192
f 330 469 471 332
f 52 191 193 54
f 469 608 610 471
f 191 608 610 193
f 331 470 472 333
f 53 192 194 55
f 470 609 611 472
f 192 609 611 194
f 332 471 473 334
f 54 193 195 56
f 471 610 612 473
f 193 610 612 195
f 333 472 474 335
f 55 194 196 57
f 472 611 613 474
f 194 611 613 196
f 334 473 475 336
f 56 195 197 58
f 473 612 614 475
f 195 612 614 197
f 335 474 476 337
f 57 196 198 59
f 474 613 615 476
f 196 613 615 198
f 336 475 477 338
f 58 197 199 60
f 475 614 616 477
f 197 614 616 199
f 337 476 478 339
f 59 198 200 61
f 476 615 617 478
f 198 615 617 200
f 338 477 479 340
f 60 199 201 62
f 477 616 618 479
f 199 616 618 201
f 339 478 480 341
f 61 200 202 63
f 478 617 619 480
f 200 617 619 202
f 340 479 481 342
f 62 201 203 64
f 479 618 620 481
f 201 618 620 203
f 341 480 482 343
f 63 202 204 65
f 480 619 621 482
f 202 619 621 204
f 342 481 483 344
f 64 203 205 66
f 481 620 622 483
f 203 620 622 205
f 343 482 484 345
f 65 204 206 67
f 482 621 623 484
f 204 621 623 206
f 344 483 485 346
f 66 205 207 68
f 483 622 624 485
f 205 622 624 207
f 345 484 486 347
f 67 206 208 69
f 484 623 625 486
f 206 623 625 208
f 346 485 487 348
f 68 207 209 70
f 485 624 626 487
f 207 624 626 209
f 347 486 488 349
f 69 208 210 71
f 486 625 627 488
f 208 625 627 210
f 348 487 489 350
f 70 209 211 72
f 487 626 628 489
f 209 626 628 211
f 349 488 490 351
f 71 210 212 73
f 488 627 629 490
f 210 627 629 212
f 350 489 491 352
f 72 211 213 74
f 489 628 630 491
f 211 628 630 213
f 351 490 492 353
f 73 212 214 75
f 490 629 631 492
f 212 629 631 214
f 352 491 493 354
f 74 213 215 76
f 491 630 632 493
f 213 630 632 215
f 353 492 494 355
f 75 214 216 77
f 492 631 633 494
f 214 631 633 216
f 354 493 495 356
f 76 215 217 78
f 493 632 634 495
f 215 632 634 217
f 355 494 496 357
f 77 216 218 79
f 494 633 635 496
f 216 633 635 218
f 356 495 497 358
f 78 217 219 80
f 495 634 636 497
f 217 634 636 219
f 357 496 498 359
f 79 218 220 81
f 496 635 637 498
f 218 635 637 220
f 358 497 499 360
f 80 219 221 82
f 497 636 638 499
f 219 636 638 221
f 359 498 500 361
f 81 220 222 83
f 498 637 639 500
f 220 637 639 222
f 360 499 501 362
f 82 221 223 84
f 499 638 640 501
f 221 638 640 223
f 361 500 502 363
f 83 222 224 85
f 500 639 641 502
f 222 639 641 224
f 362 501 503 364
f 84 223 225 86
f 501 640 642 503
f 223 640 642 225
f 363 502 504 365
f 85 224 226 87
f 502 641 643 504
f 224 641 643 226
f 364 503 505 366
f 86 225 227 88
f 503 642 644 505
f 225 642 644 227
f 365 504 506 367
f 87 226 228 89
f 504 643 645 506
f 226 643 645 228
f 366 505 507 368
f 88 227 229 90
f 505 644 646 507
f 227 644 646 229
f 367 506 508 369
f 89 228 230 91
f 506 645 647 508
f 228 645 647 230
f 368 507 509 370
f 90 229 231 92
f 507 646 648 509
f 229 646 648 231
f 369 508 510 371
f 91 230 232 93
f 508 647 649 510
f 230 647 649 232
f 370 509 511 372
f 92 231 233 94
f 509 648 650 511
f 231 648 650 233
f 371 510 512 373
f 93 232 234 95
f 510 649 651 512
f 232 649 651 234
f 372 511 513 374
f 94 233 235 96
f 511 650 652 513
f 233 650 652 235
f 373 512 514 375
f 95 234 236 97
f 512 651 653 514
f 234 651 653 236
f 374 513 515 376
f 96 235 237 98
f 513 652 654 515
f 235 652 654 237
f 375 514 516 377
f 97 236 238 99
f 514 653 655 516
f 236 653 655 238
f 376 515 517 378
f 98 237 239 100
f 515 654 656 517
f 237 654 656 239
f 377 516 518 379
f 99 238 240 101
f 516 655 657 518
f 238 655 657 240
f 378 517 519 380
f 100 239 241 102
f 517 656 658 519
f 239 656 658 241
f 379 518 520 381
f 101 240 242 103
f 518 657 659 520
f 240 657 659 242
f 380 519 521 382
f 102 241 243 104
f 519 658 660 521
f 241 658 660 243
f 381 520 522 383
f 103 242 244 105
f 520 659 661 522
f 242 659 661 244
f 382 521 523 384
f 104 243 245 106
f 521 660 662 523
f 243 660 662 245
f 383 522 524 385
f 105 244 246 107
f 522 661 663 524
f 244 661 663 246
f 384 523 525 386
f 106 245 247 108
f 523 662 664 525
f 245 662 664 247
f 385 524 526 387
f 107 246 248 109
f 524 663 665 526
f 246 663 665 248
f 386 525 527 388
f 108 247 249 110
f 525 664 666 527
f 247 664 666 249
f 387 526 528 389
f 109 248 250 111
f 526 665 667 528
f 248 665 667 250
f 388 527 529 390
f 110 249 251 112
f 527 666 668 529
f 249 666 668 251
f 389 528 530 391
f 111 250 252 113
f 528 667 669 530
f 250 667 669 252
f 390 529 531 392
f 112 251 253 114
f 529 668 670 531
f 251 668 670 253
f 391 530 532 393
f 113 252 254 115
f 530 669 671 532
f 252 669 671 254
f 392 531 533 394
f 114 253 255 116
f 531 670 672 533
f 253 670 672 255
f 393 532 534 395
f 115 254 256 117
f 532 671 673 534
f 254 671 673 256
f 394 533 535 396
f 116 255 257 118
f 533 672 674 535
f 255 672 674 257
f 395 534 536 397
f 117 256 258 119
f 534 673 675 536
f 256 673 675 258
f 396 535 537 398
f 118 257 259 120
f 535 674 676 537
f 257 674 676 259
f 397 536 538 399
f 119 258 260 121
f 536 675 677 538
f 258 675 677 260
f 398 537 539 400
f 120 259 261 122
f 537 676 678 539
f 259 676 678 261
f 399 538 540 401
f 121 260 262 123
f 538 677 679 540
f 260 677 679 262
f 400 539 541 402
f 122 261 263 124
f 539 678 680 541
f 261 678 680 263
f 401 540 542 403
f 123 262 264 125
f 540 679 681 542
f 262 679 681 264
f 402 541 543 404
f 124 263 265 126
f 541 680 682 543
f 263 680 682 265
f 403 542 544 405
f 125 264 266 127
f 542 681 683 544
f 264 681 683 266
f 404 543 545 406
f 126 265 267 128
f 543 682 684 545
f 265 682 684 267
f 405 544 546 407
f 127 266 268 129
f 544 683 685 546
f 266 683 685 268
f 406 545 547 408
f 128 267 269 130
f 545 684 686 547
f 267 684 686 269
f 407 546 548 409
f 129 268 270 131
f 546 685 687 548
f 268 685 687 270
f 408 547 549 410
f 130 269 271 132
f 547 686 688 549
f 269 686 688 271
f 409 548 550 411
f 131 270 272 133
f 548 687 689 550
f 270 687 689 272
f 410 549 551 412
f 132 271 273 134
f 549 688 690 551
f 271 688 690 273
f 411 550 552 413
f 133 272 274 135
f 550 689 691 552
f 272 689 691 274
f 412 551 553 414
f 134 273 275 136
f 551 690 692 553
f 273 690 692 275
f 413 552 554 415
f 135 274 276 137
f 552 691 693 554
f 274 691 693 276
f 414 553 555 416
f 136 275 277 138
f 553 692 694 555
f 275 692 694 277
f 415 554 556 417
f 137 276 278 139
f 554 693 695 556
f 276 693 695 278
f 416 555 557 418
f 138 277 279 140
f 555 694 696 557
f 277 694 696 279
f 417 556 558 419
f 139 278 280 141
f 556 695 697 558
f 278 695 697 280
f 2 419 558
f 2 141 280
f 2 558 697
f 2 280 697
v 9.0 0.0 30.0
v 35.0 0.0 102.0
v 35.0 0.0 108.0
v 12.5 0.0 110.0
f 698 699 700 701 698 
v -9.0 0.0 30.0
v -35.0 0.0 102.0
v -35.0 0.0 108.0
v -12.5 0.0 110.0
f 702 703 704 705 702 
v 0.0 6.0 105.0
v 0.0 15.0 132.0
v 0.0 15.0 138.0
v 0.0 0.0 140.0
f 706 707 708 709 706 
v 12.5 0.0 50.0
v 12.5 0.0 105.0
v 12.5 -4.0 105.0
v 12.5 -4.0 50.0
f 710 711 712 713 710 
v -12.5 0.0 50.0
v -12.5 0.0 105.0
v -12.5 -4.0 105.0
v -12.5 -4.0 50.0
f 714 715 716 717 714 
v 12.5 -4.0 80.0
v 12.5 -4.0 105.0
v -12.5 -4.0 105.0
v -12.5 -4.0 80.0
f 718 719 720 721 718 
v 0.0 0.0 20.0
v 10.0 0.0 80.0
v 10.0 -4.0 80.0
v 0.0 -4.0 20.0
f 722 723 724 725 722 
v 0.0 0.0 20.0
v -10.0 0.0 80.0
v -10.0 -4.0 80.0
v 0.0 -4.0 20.0
f 726 727 728 729 726 
v 0.0 -4.0 20.0
v 10.0 -4.0 80.0
v -10.0 -4.0 80.0
f 730 731 732 730 
v 12.5 0.0 80.0
v 12.5 0.0 110.0
v -12.5 0.0 110.0
v -12.5 0.0 80.0
f 733 734 735 736 733 
v 10.0 0.0 80.0
v 10.0 0.0 105.0
v 10.0 -4.0 105.0
v 10.0 -4.0 80.0
f 737 738 739 740 737 
v -10.0 0.0 80.0
v -10.0 0.0 105.0
v -10.0 -4.0 105.0
v -10.0 -4.0 80.0
f 741 742 743 744 741 
v 6.0 0.0 80.0
v 6.0 0.0 105.0
v 6.0 -4.0 105.0
v 6.0 -4.0 80.0
f 745 746 747 748 745 
v 2.0 0.0 80.0
v 2.0 0.0 105.0
v 2.0 -4.0 105.0
v 2.0 -4.0 80.0
f 749 750 751 752 749 
v -6.0 0.0 80.0
v -6.0 0.0 105.0
v -6.0 -4.0 105.0
v -6.0 -4.0 80.0
f 753 754 755 756 753 
v -2.0 0.0 80.0
v -2.0 0.0 105.0
v -2.0 -4.0 105.0
v -2.0 -4.0 80.0
f 757 758 759 760 757 
v 10.0 0.0 105.0
v 4.0 0.0 124.0
v 4.0 -2.5 124.0
v 10.0 -4.0 105.0
f 761 762 763 764 761 
v -10.0 0.0 105.0
v -4.0 0.0 124.0
v -4.0 -2.5 124.0
v -10.0 -4.0 105.0
f 765 766 767 768 765 
v 10 -4.0 105.0
v 4.0 -2.5 124.0
v -4.0 -2.5 124.0
v -10.0 -4.0 105.0
f 769 770 771 772 769 

