v 0.0 0.0 0.0
v 2.826446586029608 0.0 5
v 1.6958679516177648 1.1871075661324355 5
v 0.0 1.6958679516177648 5
v -1.6958679516177648 1.1871075661324355 5
v -2.826446586029608 0.0 5
f 1 2 3
f 1 3 4
f 1 4 5
f 1 5 6
f 1 2 6
v 2.826446586029608 0.0 5.0
v 1.6958679516177648 1.1871075661324355 5.0
v 0.0 1.6958679516177648 5.0
v -1.6958679516177648 1.1871075661324355 5.0
v -2.826446586029608 0.0 5.0
f 2 7 8 3
f 3 8 9 4
f 4 9 10 5
f 5 10 11 6
f 2 7 11 6
v 4.62083506528235 0.0 10.0
v 2.77250103916941 1.940750727418587 10.0
v 0.0 2.77250103916941 10.0
v -2.77250103916941 1.940750727418587 10.0
v -4.62083506528235 0.0 10.0
f 7 12 13 8
f 8 13 14 9
f 9 14 15 10
f 10 15 16 11
f 7 12 16 11
v 6.08154475368749 0.0 15.0
v 3.6489268522124934 2.5542487965487455 15.0
v 0.0 3.648926852212494 15.0
v -3.6489268522124934 2.5542487965487455 15.0
v -6.08154475368749 0.0 15.0
f 12 17 18 13
f 13 18 19 14
f 14 19 20 15
f 15 20 21 16
f 12 17 21 16
v 7.318488323667362 0.0 20.0
v 4.391092994200417 3.073765095940292 20.0
v 0.0 4.391092994200417 20.0
v -4.391092994200417 3.073765095940292 20.0
v -7.318488323667362 0.0 20.0
f 17 22 23 18
f 18 23 24 19
f 19 24 25 20
f 20 25 26 21
f 17 22 26 21
v 8.37994830950218 0.0 25.0
v 5.027968985701308 3.5195782899909154 25.0
v 0.0 5.027968985701308 25.0
v -5.027968985701308 3.5195782899909154 25.0
v -8.37994830950218 0.0 25.0
f 22 27 28 23
f 23 28 29 24
f 24 29 30 25
f 25 30 31 26
f 22 27 31 26
v 9.292838890978281 0.0 30.0
v 5.575703334586969 3.902992334210878 30.0
v 0.0 5.575703334586969 30.0
v -5.575703334586969 3.902992334210878 30.0
v -9.292838890978281 0.0 30.0
f 27 32 33 28
f 28 33 34 29
f 29 34 35 30
f 30 35 36 31
f 27 32 36 31
v 10.074093110845705 0.0 35.0
v 6.044455866507423 4.231119106555196 35.0
v 0.0 6.044455866507423 35.0
v -6.044455866507423 4.231119106555196 35.0
v -10.074093110845705 0.0 35.0
f 32 37 38 33
f 33 38 39 34
f 34 39 40 35
f 35 40 41 36
f 32 37 41 36
v 10.735145782075085 0.0 40.0
v 6.441087469245051 4.508761228471536 40.0
v 0.0 6.441087469245051 40.0
v -6.441087469245051 4.508761228471536 40.0
v -10.735145782075085 0.0 40.0
f 37 42 43 38
f 38 43 44 39
f 39 44 45 40
f 40 45 46 41
f 37 42 46 41
v 11.28405105031504 0.0 45.0
v 6.770430630189025 4.7393014411323175 45.0
v 0.0 6.770430630189025 45.0
v -6.770430630189025 4.7393014411323175 45.0
v -11.28405105031504 0.0 45.0
f 42 47 48 43
f 43 48 49 44
f 44 49 50 45
f 45 50 51 46
f 42 47 51 46
v 11.726606126871074 0.0 50.0
v 7.035963676122644 4.92517457328585 50.0
v 0.0 7.035963676122645 50.0
v -7.035963676122644 4.92517457328585 50.0
v -11.726606126871074 0.0 50.0
f 47 52 53 48
f 48 53 54 49
f 49 54 55 50
f 50 55 56 51
f 47 52 56 51
v 12.066995878333964 0.0 55.0
v 7.240197527000378 5.068138268900264 55.0
v 0.0 7.240197527000379 55.0
v -7.240197527000378 5.068138268900264 55.0
v -12.066995878333964 0.0 55.0
f 52 57 58 53
f 53 58 59 54
f 54 59 60 55
f 55 60 61 56
f 52 57 61 56
v 12.3081811928961 0.0 60.0
v 7.3849087157376605 5.169436101016362 60.0
v 0.0 7.3849087157376605 60.0
v -7.3849087157376605 5.169436101016362 60.0
v -12.3081811928961 0.0 60.0
f 57 62 63 58
f 58 63 64 59
f 59 64 65 60
f 60 65 66 61
f 57 62 66 61
v 12.452137797443664 0.0 65.0
v 7.471282678466197 5.229897874926338 65.0
v 0.0 7.471282678466198 65.0
v -7.471282678466197 5.229897874926338 65.0
v -12.452137797443664 0.0 65.0
f 62 67 68 63
f 63 68 69 64
f 64 69 70 65
f 65 70 71 66
f 62 67 71 66
v 12.500000000000002 0.0 70.0
v 7.5 5.25 70.0
v 0.0 7.500000000000001 70.0
v -7.5 5.25 70.0
v -12.500000000000002 0.0 70.0
f 67 72 73 68
f 68 73 74 69
f 69 74 75 70
f 70 75 76 71
f 67 72 76 71
v 12.452137797443664 0.0 75.0
v 7.471282678466197 5.229897874926338 75.0
v 0.0 7.471282678466198 75.0
v -7.471282678466197 5.229897874926338 75.0
v -12.452137797443664 0.0 75.0
f 72 77 78 73
f 73 78 79 74
f 74 79 80 75
f 75 80 81 76
f 72 77 81 76
v 12.3081811928961 0.0 80.0
v 7.3849087157376605 5.169436101016362 80.0
v 0.0 7.3849087157376605 80.0
v -7.3849087157376605 5.169436101016362 80.0
v -12.3081811928961 0.0 80.0
f 77 82 83 78
f 78 83 84 79
f 79 84 85 80
f 80 85 86 81
f 77 82 86 81
v 12.066995878333964 0.0 85.0
v 7.240197527000378 5.068138268900264 85.0
v 0.0 7.240197527000379 85.0
v -7.240197527000378 5.068138268900264 85.0
v -12.066995878333964 0.0 85.0
f 82 87 88 83
f 83 88 89 84
f 84 89 90 85
f 85 90 91 86
f 82 87 91 86
v 11.726606126871074 0.0 90.0
v 7.035963676122644 4.92517457328585 90.0
v 0.0 7.035963676122645 90.0
v -7.035963676122644 4.92517457328585 90.0
v -11.726606126871074 0.0 90.0
f 87 92 93 88
f 88 93 94 89
f 89 94 95 90
f 90 95 96 91
f 87 92 96 91
v 11.284051050315037 0.0 95.0
v 6.770430630189022 4.739301441132316 95.0
v 0.0 6.770430630189023 95.0
v -6.770430630189022 4.739301441132316 95.0
v -11.284051050315037 0.0 95.0
f 92 97 98 93
f 93 98 99 94
f 94 99 100 95
f 95 100 101 96
f 92 97 101 96
v 10.735145782075085 0.0 100.0
v 6.441087469245051 4.508761228471536 100.0
v 0.0 6.441087469245051 100.0
v -6.441087469245051 4.508761228471536 100.0
v -10.735145782075085 0.0 100.0
f 97 102 103 98
f 98 103 104 99
f 99 104 105 100
f 100 105 106 101
f 97 102 106 101
v 10.074093110845705 0.0 105.0
v 6.044455866507423 4.231119106555196 105.0
v 0.0 6.044455866507423 105.0
v -6.044455866507423 4.231119106555196 105.0
v -10.074093110845705 0.0 105.0
f 102 107 108 103
f 103 108 109 104
f 104 109 110 105
f 105 110 111 106
f 102 107 111 106
v 9.292838890978283 0.0 110.0
v 5.5757033345869695 3.9029923342108783 110.0
v 0.0 5.5757033345869695 110.0
v -5.5757033345869695 3.9029923342108783 110.0
v -9.292838890978283 0.0 110.0
f 107 112 113 108
f 108 113 114 109
f 109 114 115 110
f 110 115 116 111
f 107 112 116 111
v 8.37994830950218 0.0 115.0
v 5.027968985701308 3.5195782899909154 115.0
v 0.0 5.027968985701308 115.0
v -5.027968985701308 3.5195782899909154 115.0
v -8.37994830950218 0.0 115.0
f 112 117 118 113
f 113 118 119 114
f 114 119 120 115
f 115 120 121 116
f 112 117 121 116
v 7.3184883236673635 0.0 120.0
v 4.3910929942004175 3.0737650959402925 120.0
v 0.0 4.391092994200418 120.0
v -4.3910929942004175 3.0737650959402925 120.0
v -7.3184883236673635 0.0 120.0
f 117 122 123 118
f 118 123 124 119
f 119 124 125 120
f 120 125 126 121
f 117 122 126 121
v 6.081544753687488 0.0 125.0
v 3.648926852212493 2.554248796548745 125.0
v 0.0 3.648926852212493 125.0
v -3.648926852212493 2.554248796548745 125.0
v -6.081544753687488 0.0 125.0
f 122 127 128 123
f 123 128 129 124
f 124 129 130 125
f 125 130 131 126
f 122 127 131 126
v 4.620835065282349 0.0 130.0
v 2.7725010391694096 1.9407507274185867 130.0
v 0.0 2.7725010391694096 130.0
v -2.7725010391694096 1.9407507274185867 130.0
v -4.620835065282349 0.0 130.0
f 127 132 133 128
f 128 133 134 129
f 129 134 135 130
f 130 135 136 131
f 127 132 136 131
v 2.826446586029607 0.0 135.0
v 1.6958679516177642 1.1871075661324348 135.0
v 0.0 1.6958679516177642 135.0
v -1.6958679516177642 1.1871075661324348 135.0
v -2.826446586029607 0.0 135.0
f 132 137 138 133
f 133 138 139 134
f 134 139 140 135
f 135 140 141 136
f 132 137 141 136
v 0.0 0.0 140
v 2.826446586029608 0.0 135
v 1.6958679516177648 1.1871075661324355 135
v 0.0 1.6958679516177648 135
v -1.6958679516177648 1.1871075661324355 135
v -2.826446586029608 0.0 135
f 142 143 144
f 142 144 145
f 142 145 146
f 142 146 147
f 142 143 147
