# right wing n=1...4
v 9.0 0.0 30.0
v 35.0 0.0 102.0
v 35.0 0.0 108.0
v 12.5 0.0 110.0
f 1 2 3 4 1
#
# left wing n=5...8
v -9.0 0.0 30.0
v -35.0 0.0 102.0
v -35.0 0.0 108.0
v -12.5 0.0 110.0
f 5 6 7 8 5
#
# tail n=9...12
v 0.0 6.0 105.0
v 0.0 15.0 132.0
v 0.0 15.0 138.0
v 0.0 0.0 140.0
f 9 10 11 12 9
#
# powerplant sides
# right 16
v 12.5 0.0 50.0
v 12.5 0.0 105.0
v 12.5 -4.0 105.0
v 12.5 -4.0 50.0
f 13 14 15 16 13
# left 17
v -12.5 0.0 50.0
v -12.5 0.0 105.0
v -12.5 -4.0 105.0
v -12.5 -4.0 50.0
f 17 18 19 20 17
# underside 21
v 12.5 -4.0 80.0
v 12.5 -4.0 105.0
v -12.5 -4.0 105.0
v -12.5 -4.0 80.0
f 21 22 23 24 21
#
# spike
# right 25
v 0.0 0.0 20.0
v 10.0 0.0 80.0
v 10.0 -4.0 80.0
v 0.0 -4.0 20.0
f 25 26 27 28 25
# left 29
v 0.0 0.0 20.0
v -10.0 0.0 80.0
v -10.0 -4.0 80.0
v 0.0 -4.0 20.0
f 29 30 31 32 29
# underside 33
v 0.0 -4.0 20.0
v 10.0 -4.0 80.0
v -10.0 -4.0 80.0
f 33 34 35 33
#
# powerplant topside 36
v 12.5 0.0 80.0
v 12.5 0.0 110.0
v -12.5 0.0 110.0
v -12.5 0.0 80.0
f 36 37 38 39 36
# 
# ramjet channels
# right 40
v 10.0 0.0 80.0
v 10.0 0.0 105.0
v 10.0 -4.0 105.0
v 10.0 -4.0 80.0
f 40 41 42 43 40
# left 44
v -10.0 0.0 80.0
v -10.0 0.0 105.0
v -10.0 -4.0 105.0
v -10.0 -4.0 80.0
f 44 45 46 47 44
#
# turbofan channels 4x4m
v 6.0 0.0 80.0
v 6.0 0.0 105.0
v 6.0 -4.0 105.0
v 6.0 -4.0 80.0
f 48 49 50 51 48
v 2.0 0.0 80.0
v 2.0 0.0 105.0
v 2.0 -4.0 105.0
v 2.0 -4.0 80.0
f 52 53 54 55 52
v -6.0 0.0 80.0
v -6.0 0.0 105.0
v -6.0 -4.0 105.0
v -6.0 -4.0 80.0
f 56 57 58 59 56
v -2.0 0.0 80.0
v -2.0 0.0 105.0
v -2.0 -4.0 105.0
v -2.0 -4.0 80.0
f 60 61 62 63 60
#
# aerospike 64
v 10.0 0.0 105.0
v 4.0 0.0 124.0
v 4.0 -2.5 124.0
v 10.0 -4.0 105.0
f 64 65 66 67 64
v -10.0 0.0 105.0
v -4.0 0.0 124.0
v -4.0 -2.5 124.0
v -10.0 -4.0 105.0
f 68 69 70 71 68
v 10 -4.0 105.0
v 4.0 -2.5 124.0
v -4.0 -2.5 124.0
v -10.0 -4.0 105.0
f 72 73 74 75 72

